RobotoSerifMicroWide-SuperItalic04ip.ufo
<glyph name="four" format="2">
  <advance width="680"/>
  <unicode hex="0034"/>
  <outline>
    <contour>
      <point x="47" y="109" type="line"/>
      <point x="679" y="109" type="line"/>
      <point x="705" y="271" type="line"/>
      <point x="156" y="271" type="line"/>
      <point x="125" y="200" type="line"/>
      <point x="454" y="621" type="line"/>
      <point x="470" y="667" type="line"/>
      <point x="376" y="667" type="line"/>
      <point x="76" y="288" type="line"/>
    </contour>
    <contour>
      <point x="585" y="-50" type="line"/>
      <point x="699" y="667" type="line"/>
      <point x="440" y="667" type="line"/>
      <point x="442" y="641" type="line"/>
      <point x="332" y="-50" type="line"/>
    </contour>
  </outline>
</glyph>
<glyph name="question" format="2">
  <advance width="828"/>
  <unicode hex="003F"/>
  <outline>
    <contour>
      <point x="337" y="424" type="curve"/>
      <point x="309" y="273" type="line"/>
      <point x="508" y="273" type="line"/>
      <point x="528" y="380" type="line"/>
      <point x="725" y="381"/>
      <point x="861" y="449"/>
      <point x="861" y="583" type="curve" smooth="yes"/>
      <point x="861" y="710"/>
      <point x="749" y="762"/>
      <point x="506" y="762" type="curve" smooth="yes"/>
      <point x="353" y="762"/>
      <point x="248" y="727"/>
      <point x="210" y="711" type="curve"/>
      <point x="181" y="531" type="line"/>
      <point x="361" y="531" type="line"/>
      <point x="387" y="693" type="line"/>
      <point x="331" y="690"/>
      <point x="338" y="654"/>
      <point x="337" y="637" type="curve"/>
      <point x="356" y="646"/>
      <point x="404" y="669"/>
      <point x="469" y="669" type="curve" smooth="yes"/>
      <point x="548" y="669"/>
      <point x="584" y="644"/>
      <point x="584" y="586" type="curve" smooth="yes"/>
      <point x="584" y="502"/>
      <point x="524" y="426"/>
    </contour>
    <contour>
      <point x="531" y="102" type="curve" smooth="yes"/>
      <point x="531" y="177"/>
      <point x="477" y="231"/>
      <point x="385" y="231" type="curve" smooth="yes"/>
      <point x="292" y="231"/>
      <point x="237" y="177"/>
      <point x="237" y="102" type="curve" smooth="yes"/>
      <point x="237" y="22"/>
      <point x="292" y="-26"/>
      <point x="385" y="-26" type="curve" smooth="yes"/>
      <point x="477" y="-26"/>
      <point x="531" y="23"/>
    </contour>
  </outline>
</glyph>
<glyph name="l" format="2">
  <advance width="475"/>
  <unicode hex="006C"/>
  <guideline x="162" y="331" angle="81" identifier="UkHES0ac0k"/>
  <anchor x="366" y="810" name="top"/>
  <anchor x="526" y="691" name="right"/>
  <anchor x="417" y="391" name="mid"/>
  <anchor x="261" y="0" name="bottom"/>
  <outline>
    <contour>
      <point x="408" y="252.0" type="curve" smooth="yes"/>
      <point x="495" y="780" type="line"/>
      <point x="164" y="780" type="line"/>
      <point x="148" y="680" type="line"/>
      <point x="162" y="678" type="line" smooth="yes"/>
      <point x="203" y="672"/>
      <point x="212" y="667"/>
      <point x="211" y="658" type="curve" smooth="yes"/>
      <point x="146" y="247.0" type="line" smooth="yes"/>
      <point x="135" y="176"/>
      <point x="130.0" y="145.0"/>
      <point x="130" y="115.0" type="curve" smooth="yes"/>
      <point x="130" y="34"/>
      <point x="177" y="0.0"/>
      <point x="271" y="0.0" type="curve" smooth="yes"/>
      <point x="334" y="0"/>
      <point x="372" y="0.0"/>
      <point x="442" y="0.0" type="curve"/>
      <point x="461" y="118.0" type="line"/>
      <point x="438" y="118.0"/>
      <point x="447" y="118.0"/>
      <point x="431" y="118.0" type="curve" smooth="yes"/>
      <point x="407" y="118.0"/>
      <point x="395.0" y="126.0"/>
      <point x="395" y="147.0" type="curve" smooth="yes"/>
      <point x="395.0" y="160"/>
      <point x="396" y="181"/>
    </contour>
  </outline>
</glyph>
<glyph name="multiply" format="2">
  <advance width="680"/>
  <unicode hex="00D7"/>
  <outline>
    <contour>
      <point x="226" y="101.0" type="line"/>
      <point x="664" y="469.0" type="line"/>
      <point x="565" y="583.0" type="line"/>
      <point x="127" y="215.0" type="line"/>
    </contour>
    <contour>
      <point x="503" y="104.0" type="line"/>
      <point x="622" y="207.0" type="line"/>
      <point x="286" y="575.0" type="line"/>
      <point x="167" y="472.0" type="line"/>
    </contour>
  </outline>
</glyph>
<glyph name="divide" format="2">
  <advance width="680"/>
  <unicode hex="00F7"/>
  <outline>
    <contour>
      <point x="590" y="623" type="curve" smooth="yes"/>
      <point x="590" y="694"/>
      <point x="535" y="738"/>
      <point x="443" y="738" type="curve" smooth="yes"/>
      <point x="350" y="738"/>
      <point x="296" y="694"/>
      <point x="296" y="623" type="curve" smooth="yes"/>
      <point x="296" y="549"/>
      <point x="350" y="508"/>
      <point x="443" y="508" type="curve" smooth="yes"/>
      <point x="535" y="508"/>
      <point x="590" y="551"/>
    </contour>
    <contour>
      <point x="522" y="120" type="curve" smooth="yes"/>
      <point x="522" y="191"/>
      <point x="467" y="235"/>
      <point x="375" y="235" type="curve" smooth="yes"/>
      <point x="282" y="235"/>
      <point x="228" y="191"/>
      <point x="228" y="120" type="curve" smooth="yes"/>
      <point x="228" y="46"/>
      <point x="282" y="5"/>
      <point x="375" y="5" type="curve" smooth="yes"/>
      <point x="467" y="5"/>
      <point x="522" y="48"/>
    </contour>
    <contour>
      <point x="705" y="448" type="line"/>
      <point x="118" y="448" type="line"/>
      <point x="94" y="296" type="line"/>
      <point x="681" y="296" type="line"/>
    </contour>
  </outline>
</glyph>
<glyph name="itilde" format="2">
  <advance width="470"/>
  <unicode hex="0129"/>
  <outline>
    <contour>
      <point x="410" y="615" type="curve" smooth="yes"/>
      <point x="512.0" y="615.0"/>
      <point x="565" y="675"/>
      <point x="599" y="851" type="curve"/>
      <point x="492" y="872" type="line"/>
      <point x="472" y="792"/>
      <point x="462" y="766"/>
      <point x="423" y="766" type="curve" smooth="yes"/>
      <point x="364.0" y="766.0"/>
      <point x="351" y="868"/>
      <point x="236" y="868" type="curve" smooth="yes"/>
      <point x="124.0" y="868.0"/>
      <point x="87" y="805"/>
      <point x="48" y="637" type="curve"/>
      <point x="156" y="616" type="line"/>
      <point x="178" y="692"/>
      <point x="186" y="720"/>
      <point x="224" y="720" type="curve"/>
      <point x="280" y="720"/>
      <point x="286" y="615"/>
    </contour>
    <contour>
      <point x="411" y="252.0" type="curve" smooth="yes"/>
      <point x="471" y="572.0" type="line"/>
      <point x="131" y="572.0" type="line"/>
      <point x="115" y="472.0" type="line"/>
      <point x="137" y="469.0" type="line" smooth="yes"/>
      <point x="175" y="464"/>
      <point x="186" y="459"/>
      <point x="184" y="446.0" type="curve" smooth="yes"/>
      <point x="147" y="247.0" type="line" smooth="yes"/>
      <point x="134" y="176"/>
      <point x="129.0" y="145.0"/>
      <point x="129" y="115.0" type="curve" smooth="yes"/>
      <point x="129" y="34"/>
      <point x="179" y="0.0"/>
      <point x="273" y="0.0" type="curve" smooth="yes"/>
      <point x="336" y="0"/>
      <point x="374" y="0.0"/>
      <point x="444" y="0.0" type="curve"/>
      <point x="463" y="118.0" type="line"/>
      <point x="440" y="118.0"/>
      <point x="449" y="118.0"/>
      <point x="433" y="118.0" type="curve" smooth="yes"/>
      <point x="409" y="118.0"/>
      <point x="397.0" y="126.0"/>
      <point x="397" y="147.0" type="curve" smooth="yes"/>
      <point x="397.0" y="160"/>
      <point x="398" y="181"/>
    </contour>
  </outline>
</glyph>
<glyph name="tbar" format="2">
  <advance width="653"/>
  <unicode hex="0167"/>
  <guideline x="632" y="212" angle="81" identifier="q04CNXAIT2"/>
  <outline>
    <contour>
      <point x="645" y="359" type="line"/>
      <point x="108" y="359" type="line"/>
      <point x="92" y="259" type="line"/>
      <point x="629" y="259" type="line"/>
    </contour>
    <component base="t"/>
  </outline>
</glyph>
<glyph name="Uogonek" format="2">
  <advance width="948"/>
  <unicode hex="0172"/>
  <outline>
    <contour>
      <point x="552" y="-252" type="curve" smooth="yes"/>
      <point x="424" y="-252"/>
      <point x="361" y="-218"/>
      <point x="361" y="-154" type="curve" smooth="yes"/>
      <point x="361" y="-85"/>
      <point x="436" y="-45"/>
      <point x="615" y="-6" type="curve"/>
      <point x="617" y="-16" type="line"/>
      <point x="584" y="-22"/>
      <point x="548" y="-25"/>
      <point x="510" y="-25" type="curve" smooth="yes"/>
      <point x="302" y="-25"/>
      <point x="154" y="56"/>
      <point x="154" y="228" type="curve" smooth="yes"/>
      <point x="154" y="256"/>
      <point x="156" y="281"/>
      <point x="165" y="339" type="curve" smooth="yes"/>
      <point x="202" y="575" type="line" smooth="yes"/>
      <point x="205" y="593"/>
      <point x="186" y="605"/>
      <point x="156" y="605" type="curve" smooth="yes"/>
      <point x="131" y="605" type="line"/>
      <point x="147" y="710" type="line"/>
      <point x="568" y="710" type="line"/>
      <point x="552" y="605" type="line"/>
      <point x="534" y="605" type="line" smooth="yes"/>
      <point x="502" y="605"/>
      <point x="484" y="601"/>
      <point x="483" y="592" type="curve" smooth="yes"/>
      <point x="436" y="296" type="line" smooth="yes"/>
      <point x="432" y="271"/>
      <point x="431" y="249"/>
      <point x="431" y="230" type="curve" smooth="yes"/>
      <point x="431" y="133"/>
      <point x="484" y="101"/>
      <point x="576" y="101" type="curve" smooth="yes"/>
      <point x="683" y="101"/>
      <point x="748" y="154"/>
      <point x="771" y="296" type="curve" smooth="yes"/>
      <point x="818" y="591" type="line" smooth="yes"/>
      <point x="819" y="600"/>
      <point x="806" y="605"/>
      <point x="770" y="605" type="curve" smooth="yes"/>
      <point x="754" y="605" type="line"/>
      <point x="770" y="710" type="line"/>
      <point x="1025" y="710" type="line"/>
      <point x="1009" y="605" type="line"/>
      <point x="983" y="605" type="line" smooth="yes"/>
      <point x="953" y="605"/>
      <point x="931" y="595"/>
      <point x="928" y="575" type="curve" smooth="yes"/>
      <point x="882" y="286" type="line" smooth="yes"/>
      <point x="860" y="149"/>
      <point x="803" y="65"/>
      <point x="716" y="18" type="curve" smooth="yes"/>
      <point x="583" y="-54"/>
      <point x="552" y="-81"/>
      <point x="552" y="-119" type="curve" smooth="yes"/>
      <point x="552" y="-148"/>
      <point x="572" y="-163"/>
      <point x="613" y="-163" type="curve" smooth="yes"/>
      <point x="642" y="-163"/>
      <point x="676" y="-152"/>
      <point x="701" y="-134" type="curve"/>
      <point x="742" y="-201" type="line"/>
      <point x="707" y="-230"/>
      <point x="634" y="-252"/>
    </contour>
  </outline>
</glyph>
<glyph name="ohorn" format="2">
  <advance width="926"/>
  <unicode hex="01A1"/>
  <anchor x="503" y="571" name="top"/>
  <anchor x="423" y="0" name="bottom"/>
  <outline>
    <contour>
      <point x="454" y="-12" type="curve" smooth="yes"/>
      <point x="715" y="-12"/>
      <point x="855" y="130"/>
      <point x="855" y="279" type="curve" smooth="yes"/>
      <point x="855.0" y="371.0"/>
      <point x="805" y="424"/>
      <point x="676" y="463" type="curve"/>
      <point x="712" y="444" type="line"/>
      <point x="721" y="497" type="line"/>
      <point x="654" y="496" type="line"/>
      <point x="709" y="477"/>
      <point x="768" y="451"/>
      <point x="838" y="451" type="curve" smooth="yes"/>
      <point x="949" y="451"/>
      <point x="1016" y="519"/>
      <point x="1027" y="758" type="curve"/>
      <point x="839" y="758" type="line"/>
      <point x="826" y="591"/>
      <point x="802" y="555"/>
      <point x="732" y="555" type="curve" smooth="yes"/>
      <point x="672" y="555"/>
      <point x="596" y="583"/>
      <point x="484" y="583" type="curve" smooth="yes"/>
      <point x="222" y="583"/>
      <point x="80" y="437"/>
      <point x="80" y="260" type="curve" smooth="yes"/>
      <point x="80" y="85"/>
      <point x="214" y="-12"/>
    </contour>
    <contour>
      <point x="447" y="103" type="curve" smooth="yes"/>
      <point x="418" y="103"/>
      <point x="396" y="111"/>
      <point x="380" y="129" type="curve" smooth="yes"/>
      <point x="362" y="150"/>
      <point x="353" y="183"/>
      <point x="353" y="233" type="curve" smooth="yes"/>
      <point x="353" y="323"/>
      <point x="380" y="468"/>
      <point x="491" y="468" type="curve" smooth="yes"/>
      <point x="521" y="468"/>
      <point x="544" y="459"/>
      <point x="560" y="438" type="curve" smooth="yes"/>
      <point x="576" y="418"/>
      <point x="584" y="386"/>
      <point x="584" y="339" type="curve" smooth="yes"/>
      <point x="584" y="244"/>
      <point x="557" y="103"/>
    </contour>
  </outline>
</glyph>
<glyph name="breve" format="2">
  <advance width="491"/>
  <unicode hex="02D8"/>
  <anchor x="335" y="571" name="_top"/>
  <outline>
    <contour>
      <point x="353" y="621.0" type="curve" smooth="yes"/>
      <point x="198" y="621.0"/>
      <point x="119" y="706.0"/>
      <point x="134" y="843.0" type="curve"/>
      <point x="243" y="843.0" type="line"/>
      <point x="247" y="789.0"/>
      <point x="292" y="768.0"/>
      <point x="370" y="768.0" type="curve" smooth="yes"/>
      <point x="448" y="768.0"/>
      <point x="497" y="789.0"/>
      <point x="520" y="843.0" type="curve"/>
      <point x="625" y="843.0" type="line"/>
      <point x="592" y="696.0"/>
      <point x="509" y="621.0"/>
    </contour>
  </outline>
</glyph>
<glyph name="daggerdbl" format="2">
  <advance width="699"/>
  <unicode hex="2021"/>
  <outline>
    <contour>
      <point x="126" y="414" type="line"/>
      <point x="182" y="414" type="line"/>
      <point x="386" y="481" type="line"/>
      <point x="466" y="481" type="line"/>
      <point x="649" y="414" type="line"/>
      <point x="705" y="414" type="line"/>
      <point x="733" y="596" type="line"/>
      <point x="677" y="596" type="line"/>
      <point x="472" y="516" type="line"/>
      <point x="392" y="516" type="line"/>
      <point x="210" y="596" type="line"/>
      <point x="154" y="596" type="line"/>
    </contour>
    <contour>
      <point x="252" y="290" type="line"/>
      <point x="269" y="275"/>
      <point x="350" y="244"/>
      <point x="333" y="142" type="curve" smooth="yes"/>
      <point x="320" y="56"/>
      <point x="198" y="18"/>
      <point x="192" y="-22" type="curve" smooth="yes"/>
      <point x="184" y="-67" type="line"/>
      <point x="494" y="-67" type="line"/>
      <point x="502" y="-22" type="line" smooth="yes"/>
      <point x="508" y="18"/>
      <point x="398" y="56"/>
      <point x="411" y="142" type="curve" smooth="yes"/>
      <point x="428" y="244"/>
      <point x="519" y="275"/>
      <point x="540" y="290" type="curve"/>
      <point x="550" y="353" type="line"/>
      <point x="533" y="368"/>
      <point x="452" y="399"/>
      <point x="468" y="501" type="curve" smooth="yes"/>
      <point x="482" y="587"/>
      <point x="604" y="625"/>
      <point x="610" y="665" type="curve" smooth="yes"/>
      <point x="617" y="710" type="line"/>
      <point x="307" y="710" type="line"/>
      <point x="300" y="665" type="line" smooth="yes"/>
      <point x="294" y="625"/>
      <point x="404" y="587"/>
      <point x="390" y="501" type="curve" smooth="yes"/>
      <point x="374" y="399"/>
      <point x="283" y="368"/>
      <point x="262" y="353" type="curve"/>
    </contour>
    <contour>
      <point x="67" y="47" type="line"/>
      <point x="123" y="47" type="line"/>
      <point x="330" y="127" type="line"/>
      <point x="410" y="127" type="line"/>
      <point x="590" y="47" type="line"/>
      <point x="646" y="47" type="line"/>
      <point x="675" y="229" type="line"/>
      <point x="619" y="229" type="line"/>
      <point x="416" y="162" type="line"/>
      <point x="336" y="162" type="line"/>
      <point x="152" y="229" type="line"/>
      <point x="96" y="229" type="line"/>
    </contour>
  </outline>
</glyph>
<glyph name="peseta" format="2">
  <advance width="680"/>
  <unicode hex="20A7"/>
  <outline>
    <contour>
      <point x="25" y="0.0" type="line"/>
      <point x="271" y="0.0" type="line"/>
      <point x="288" y="105.0" type="line"/>
      <point x="266" y="105.0" type="line" smooth="yes"/>
      <point x="247" y="105.0"/>
      <point x="221" y="108.0"/>
      <point x="222" y="115.0" type="curve" smooth="yes"/>
      <point x="239" y="222.0" type="line"/>
      <point x="255" y="222.0" type="line" smooth="yes"/>
      <point x="406" y="222.0"/>
      <point x="506" y="326"/>
      <point x="506" y="522.0" type="curve" smooth="yes"/>
      <point x="506.0" y="631.0"/>
      <point x="471.0" y="710.0"/>
      <point x="302" y="710.0" type="curve" smooth="yes"/>
      <point x="138" y="710.0" type="line"/>
      <point x="122" y="605.0" type="line"/>
      <point x="138" y="605.0" type="line" smooth="yes"/>
      <point x="162" y="605.0"/>
      <point x="167" y="598.0"/>
      <point x="163" y="569.0" type="curve" smooth="yes"/>
      <point x="95" y="141.0" type="line" smooth="yes"/>
      <point x="90" y="112.0"/>
      <point x="82" y="105.0"/>
      <point x="58" y="105.0" type="curve" smooth="yes"/>
      <point x="42" y="105.0" type="line"/>
    </contour>
    <contour>
      <point x="317" y="605.0" type="line" smooth="yes"/>
      <point x="364.0" y="605.0"/>
      <point x="384" y="588"/>
      <point x="384" y="531.0" type="curve" smooth="yes"/>
      <point x="384.0" y="372.0"/>
      <point x="330" y="327.0"/>
      <point x="274" y="327.0" type="curve" smooth="yes"/>
      <point x="256" y="327.0" type="line"/>
      <point x="300" y="605.0" type="line"/>
    </contour>
    <contour>
      <point x="549" y="539.0" type="line"/>
      <point x="482" y="115.0" type="line" smooth="yes"/>
      <point x="467" y="23"/>
      <point x="517" y="-12.0"/>
      <point x="596" y="-12.0" type="curve" smooth="yes"/>
      <point x="619.0" y="-12.0"/>
      <point x="638" y="-10.0"/>
      <point x="657" y="-7.0" type="curve"/>
      <point x="672" y="89.0" type="line"/>
      <point x="668" y="89.0"/>
      <point x="660" y="87"/>
      <point x="648" y="87.0" type="curve" smooth="yes"/>
      <point x="627" y="87.0"/>
      <point x="616" y="95"/>
      <point x="622" y="131.0" type="curve" smooth="yes"/>
      <point x="713" y="710.0" type="line"/>
      <point x="592" y="710.0" type="line"/>
      <point x="577" y="614.0" type="line" smooth="yes"/>
      <point x="567" y="553.0"/>
      <point x="551" y="542.0"/>
      <point x="512" y="542.0" type="curve" smooth="yes"/>
      <point x="487" y="542.0" type="line"/>
      <point x="474" y="460.0" type="line"/>
      <point x="734" y="460.0" type="line"/>
      <point x="749" y="555.0" type="line"/>
      <point x="606" y="555.0" type="line"/>
    </contour>
  </outline>
</glyph>
<glyph name="trademark" format="2">
  <advance width="1458"/>
  <unicode hex="2122"/>
  <outline>
    <contour>
      <point x="224" y="238" type="line"/>
      <point x="510" y="238" type="line"/>
      <point x="522" y="318" type="line"/>
      <point x="506" y="318" type="line" smooth="yes"/>
      <point x="476" y="318"/>
      <point x="460" y="323"/>
      <point x="463" y="338" type="curve" smooth="yes"/>
      <point x="508" y="625" type="line"/>
      <point x="539" y="625" type="line" smooth="yes"/>
      <point x="597" y="625"/>
      <point x="606" y="615"/>
      <point x="605" y="595" type="curve" smooth="yes"/>
      <point x="601" y="510" type="line"/>
      <point x="686" y="510" type="line"/>
      <point x="717" y="710" type="line"/>
      <point x="167" y="710" type="line"/>
      <point x="136" y="510" type="line"/>
      <point x="221" y="510" type="line"/>
      <point x="240" y="595" type="line" smooth="yes"/>
      <point x="244" y="615"/>
      <point x="259" y="625"/>
      <point x="317" y="625" type="curve" smooth="yes"/>
      <point x="348" y="625" type="line"/>
      <point x="303" y="338" type="line" smooth="yes"/>
      <point x="300" y="323"/>
      <point x="282" y="318"/>
      <point x="252" y="318" type="curve" smooth="yes"/>
      <point x="236" y="318" type="line"/>
    </contour>
    <contour>
      <point x="694" y="238" type="line"/>
      <point x="880" y="238" type="line"/>
      <point x="892" y="318" type="line"/>
      <point x="889" y="318" type="line" smooth="yes"/>
      <point x="875" y="318"/>
      <point x="852" y="321"/>
      <point x="852" y="324" type="curve" smooth="yes"/>
      <point x="904" y="663" type="line"/>
      <point x="895" y="663" type="line"/>
      <point x="969" y="236" type="line"/>
      <point x="1091" y="236" type="line"/>
      <point x="1294" y="657" type="line"/>
      <point x="1285" y="657" type="line"/>
      <point x="1231" y="324" type="line" smooth="yes"/>
      <point x="1231" y="321"/>
      <point x="1208" y="318"/>
      <point x="1192" y="318" type="curve" smooth="yes"/>
      <point x="1186" y="318" type="line"/>
      <point x="1174" y="238" type="line"/>
      <point x="1426" y="238" type="line"/>
      <point x="1438" y="318" type="line"/>
      <point x="1425" y="318" type="line" smooth="yes"/>
      <point x="1397" y="318"/>
      <point x="1382" y="323"/>
      <point x="1385" y="338" type="curve" smooth="yes"/>
      <point x="1427" y="608" type="line" smooth="yes"/>
      <point x="1430" y="625"/>
      <point x="1447" y="629"/>
      <point x="1475" y="629" type="curve" smooth="yes"/>
      <point x="1488" y="629" type="line"/>
      <point x="1500" y="710" type="line"/>
      <point x="1235" y="710" type="line"/>
      <point x="1032" y="286" type="line"/>
      <point x="1104" y="291" type="line"/>
      <point x="1035" y="710" type="line"/>
      <point x="768" y="710" type="line"/>
      <point x="756" y="629" type="line"/>
      <point x="767" y="629" type="line" smooth="yes"/>
      <point x="795" y="629"/>
      <point x="812" y="625"/>
      <point x="809" y="608" type="curve" smooth="yes"/>
      <point x="767" y="338" type="line" smooth="yes"/>
      <point x="764" y="323"/>
      <point x="745" y="318"/>
      <point x="717" y="318" type="curve" smooth="yes"/>
      <point x="706" y="318" type="line"/>
    </contour>
  </outline>
</glyph>
<glyph name="hook" format="2">
  <advance width="515"/>
  <unicode hex="2440"/>
  <anchor x="335" y="571" name="_top"/>
  <outline>
    <contour>
      <point x="127" y="804" type="line"/>
      <point x="146" y="911"/>
      <point x="244" y="954"/>
      <point x="382" y="954" type="curve" smooth="yes"/>
      <point x="565" y="954"/>
      <point x="643" y="908"/>
      <point x="643" y="817" type="curve" smooth="yes"/>
      <point x="643" y="714"/>
      <point x="549" y="679"/>
      <point x="339" y="679" type="curve"/>
      <point x="435" y="725" type="line"/>
      <point x="420" y="632" type="line"/>
      <point x="270" y="632" type="line"/>
      <point x="287" y="741" type="line"/>
      <point x="420" y="745"/>
      <point x="477" y="760"/>
      <point x="477" y="812" type="curve" smooth="yes"/>
      <point x="477" y="846"/>
      <point x="451" y="862"/>
      <point x="389" y="862" type="curve" smooth="yes"/>
      <point x="332" y="862"/>
      <point x="294" y="846"/>
      <point x="283" y="804" type="curve"/>
    </contour>
  </outline>
</glyph>
<glyph name="eight.den" format="2">
  <advance width="606"/>
  <unicode hex="E40A"/>
  <outline>
    <contour>
      <point x="340" y="232" type="curve" smooth="yes"/>
      <point x="205" y="232"/>
      <point x="79" y="217"/>
      <point x="79" y="109" type="curve" smooth="yes"/>
      <point x="79" y="42"/>
      <point x="120" y="-6"/>
      <point x="302" y="-6" type="curve" smooth="yes"/>
      <point x="484" y="-6"/>
      <point x="565" y="44"/>
      <point x="565" y="131" type="curve" smooth="yes"/>
      <point x="565" y="219"/>
      <point x="476" y="232"/>
    </contour>
    <contour>
      <point x="315" y="56" type="curve" smooth="yes"/>
      <point x="278" y="56"/>
      <point x="263" y="80"/>
      <point x="263" y="113" type="curve" smooth="yes"/>
      <point x="263" y="178"/>
      <point x="295" y="201"/>
      <point x="335" y="201" type="curve" smooth="yes"/>
      <point x="368" y="201"/>
      <point x="386" y="185"/>
      <point x="386" y="144" type="curve" smooth="yes"/>
      <point x="386" y="81"/>
      <point x="352" y="56"/>
    </contour>
    <contour>
      <point x="372" y="432" type="curve" smooth="yes"/>
      <point x="206" y="432"/>
      <point x="131" y="384"/>
      <point x="131" y="313" type="curve" smooth="yes"/>
      <point x="131" y="234"/>
      <point x="215" y="222"/>
      <point x="338" y="222" type="curve" smooth="yes"/>
      <point x="462" y="222"/>
      <point x="578" y="239"/>
      <point x="578" y="334" type="curve" smooth="yes"/>
      <point x="578" y="390"/>
      <point x="539" y="432"/>
    </contour>
    <contour>
      <point x="346" y="250" type="curve"/>
      <point x="316" y="250"/>
      <point x="300" y="266"/>
      <point x="300" y="298" type="curve" smooth="yes"/>
      <point x="300" y="353"/>
      <point x="329" y="371"/>
      <point x="361" y="371" type="curve" smooth="yes"/>
      <point x="390" y="371"/>
      <point x="405" y="354"/>
      <point x="405" y="322" type="curve" smooth="yes"/>
      <point x="405" y="267"/>
      <point x="377" y="250"/>
    </contour>
  </outline>
</glyph>
<glyph name="circumflex_grave.uc" format="2">
  <advance width="704"/>
  <anchor x="390" y="741" name="_top"/>
  <outline>
    <contour>
      <point x="788" y="1089" type="line" smooth="yes"/>
      <point x="755" y="1159"/>
      <point x="726" y="1197"/>
      <point x="657" y="1197" type="curve" smooth="yes"/>
      <point x="604" y="1197"/>
      <point x="554" y="1163"/>
      <point x="554" y="1101" type="curve" smooth="yes"/>
      <point x="554" y="1049"/>
      <point x="581" y="1023"/>
      <point x="673" y="976" type="curve" smooth="yes"/>
      <point x="783" y="920" type="line"/>
      <point x="840" y="920" type="line"/>
      <point x="847" y="965" type="line"/>
    </contour>
    <contour>
      <point x="523" y="998" type="line"/>
      <point x="678" y="824" type="line"/>
      <point x="669" y="771" type="line"/>
      <point x="585" y="771" type="line"/>
      <point x="381" y="862" type="line"/>
      <point x="445" y="861" type="line"/>
      <point x="222" y="771" type="line"/>
      <point x="122" y="771" type="line"/>
      <point x="131" y="824" type="line"/>
      <point x="344" y="998" type="line"/>
    </contour>
  </outline>
</glyph>
<glyph name="eight.prop" format="2">
  <advance width="761"/>
  <outline>
    <contour>
      <point x="402" y="85" type="curve" smooth="yes"/>
      <point x="329" y="85"/>
      <point x="296" y="124"/>
      <point x="308" y="212" type="curve" smooth="yes"/>
      <point x="319" y="295"/>
      <point x="359" y="332"/>
      <point x="431" y="332" type="curve" smooth="yes"/>
      <point x="500" y="332"/>
      <point x="530" y="295"/>
      <point x="520" y="212" type="curve" smooth="yes"/>
      <point x="509" y="122"/>
      <point x="476" y="85"/>
    </contour>
    <contour>
      <point x="454" y="424" type="curve" smooth="yes"/>
      <point x="385" y="424"/>
      <point x="354" y="457"/>
      <point x="363" y="527" type="curve" smooth="yes"/>
      <point x="372" y="599"/>
      <point x="410" y="631"/>
      <point x="478" y="631" type="curve" smooth="yes"/>
      <point x="543" y="631"/>
      <point x="574" y="599"/>
      <point x="565" y="527" type="curve" smooth="yes"/>
      <point x="556" y="457"/>
      <point x="518" y="424"/>
    </contour>
    <contour>
      <point x="379" y="-10" type="curve" smooth="yes"/>
      <point x="629" y="-10"/>
      <point x="755" y="62"/>
      <point x="755" y="210" type="curve" smooth="yes"/>
      <point x="755" y="302"/>
      <point x="702" y="366"/>
      <point x="501" y="378" type="curve"/>
      <point x="589" y="354" type="line"/>
      <point x="598" y="411" type="line"/>
      <point x="502" y="386" type="line"/>
      <point x="691" y="398"/>
      <point x="786" y="445"/>
      <point x="786" y="565" type="curve" smooth="yes"/>
      <point x="786.0" y="663.0"/>
      <point x="714" y="726"/>
      <point x="495" y="726" type="curve" smooth="yes"/>
      <point x="286" y="726"/>
      <point x="150" y="659"/>
      <point x="150" y="533" type="curve" smooth="yes"/>
      <point x="150" y="443"/>
      <point x="215" y="398"/>
      <point x="380" y="386" type="curve"/>
      <point x="292" y="411" type="line"/>
      <point x="283" y="354" type="line"/>
      <point x="379" y="378" type="line"/>
      <point x="184" y="366"/>
      <point x="67" y="304"/>
      <point x="67" y="180" type="curve" smooth="yes"/>
      <point x="67" y="61"/>
      <point x="149" y="-10"/>
    </contour>
  </outline>
</glyph>
<glyph name="ring.uc" format="2">
  <advance width="392"/>
  <anchor x="314" y="741" name="_top"/>
  <outline>
    <contour>
      <point x="337" y="864" type="curve" smooth="yes"/>
      <point x="291" y="864"/>
      <point x="270" y="889"/>
      <point x="270" y="924" type="curve" smooth="yes"/>
      <point x="270.0" y="973.0"/>
      <point x="305" y="995"/>
      <point x="352" y="995" type="curve" smooth="yes"/>
      <point x="396" y="995"/>
      <point x="417" y="970"/>
      <point x="417" y="935" type="curve" smooth="yes"/>
      <point x="417.0" y="886.0"/>
      <point x="382" y="864"/>
    </contour>
    <contour>
      <point x="323" y="770" type="curve" smooth="yes"/>
      <point x="456" y="770"/>
      <point x="540" y="832"/>
      <point x="540" y="945" type="curve" smooth="yes"/>
      <point x="540" y="1022"/>
      <point x="487" y="1089"/>
      <point x="364" y="1089" type="curve" smooth="yes"/>
      <point x="231" y="1089"/>
      <point x="147" y="1027"/>
      <point x="147" y="914" type="curve" smooth="yes"/>
      <point x="147" y="837"/>
      <point x="200" y="770"/>
    </contour>
  </outline>
</glyph>
<glyph name="ringhalfleft" format="2">
  <advance width="563"/>
  <anchor x="342" y="566" name="_top"/>
  <outline>
    <contour>
      <point x="480" y="693" type="line"/>
      <point x="431" y="693"/>
      <point x="405" y="715"/>
      <point x="405" y="760" type="curve" smooth="yes"/>
      <point x="405" y="805"/>
      <point x="431" y="828"/>
      <point x="480" y="828" type="curve"/>
      <point x="480" y="910" type="line"/>
      <point x="365" y="910"/>
      <point x="294" y="847"/>
      <point x="294" y="760" type="curve" smooth="yes"/>
      <point x="294" y="674"/>
      <point x="365" y="610"/>
      <point x="480" y="610" type="curve"/>
    </contour>
  </outline>
</glyph>
<glyph name="zero.slashold" format="2">
  <advance width="680"/>
  <outline>
    <contour>
      <point x="372" y="-11" type="curve" smooth="yes"/>
      <point x="634.0" y="-11.0"/>
      <point x="697" y="194"/>
      <point x="697" y="377" type="curve" smooth="yes"/>
      <point x="697" y="559"/>
      <point x="611" y="650.0"/>
      <point x="411" y="650" type="curve" smooth="yes"/>
      <point x="149.0" y="650.0"/>
      <point x="86" y="450"/>
      <point x="86" y="267" type="curve" smooth="yes"/>
      <point x="86" y="85"/>
      <point x="172" y="-11.0"/>
    </contour>
    <contour>
      <point x="188.0" y="107" type="line"/>
      <point x="619.0" y="447" type="line"/>
      <point x="598.0" y="533" type="line"/>
      <point x="164.0" y="190" type="line"/>
    </contour>
    <contour>
      <point x="356" y="98" type="curve" smooth="yes"/>
      <point x="319.0" y="98.0"/>
      <point x="310.0" y="125"/>
      <point x="310" y="179" type="curve" smooth="yes"/>
      <point x="310.0" y="204.0"/>
      <point x="313" y="247"/>
      <point x="328" y="328" type="curve" smooth="yes"/>
      <point x="361" y="509"/>
      <point x="390" y="541"/>
      <point x="429" y="541" type="curve" smooth="yes"/>
      <point x="466.0" y="541.0"/>
      <point x="473.0" y="516"/>
      <point x="473" y="467" type="curve" smooth="yes"/>
      <point x="473.0" y="434.0"/>
      <point x="469" y="397"/>
      <point x="455" y="316" type="curve" smooth="yes"/>
      <point x="423" y="135"/>
      <point x="401" y="98"/>
    </contour>
  </outline>
</glyph>
